<svg xmlns="http://www.w3.org/2000/svg" viewBox="0 0 32 32" role="img" aria-label="RecipeGo">
  <rect width="32" height="32" rx="7" fill="#C65D3B"/>
  <!-- fried egg: cream white + warm amber yolk -->
  <path d="M16 6.4c3.7 0 6.2 1.9 7.4 4.7.7 1.6 2.6 1.7 3 3.6.5 2.3-1.3 4-3.4 4.2-.6 2.4-2.9 4.3-5.8 4.3-1.7 0-2.7-.7-4-.6-2.9.2-6.2-1.8-6.6-5.2-1.9-.5-3.1-2.2-2.6-4.2.4-1.7 2-2.1 2.9-3.4C8.4 8.8 11.4 6.4 16 6.4Z" fill="#F7F1E7"/>
  <circle cx="15.4" cy="14.6" r="3.9" fill="#E6A23C"/>
  <circle cx="14.1" cy="13.3" r="1.2" fill="#F2C97A" opacity="0.9"/>
</svg>
